<svg width="150" height="40" viewBox="0 0 150 40" fill="none" xmlns="http://www.w3.org/2000/svg">
<path fill-rule="evenodd" clip-rule="evenodd" d="M13.0074 16.3896C12.4293 17.0837 11.8051 17.9164 11.8051 19.1646C11.8051 21.4999 13.1467 23.3271 15.5513 23.3271C18.7435 23.3271 19.3676 20.0673 19.3676 18.5171C19.3676 18.3366 19.3574 18.1639 19.3388 17.9989C20.1854 17.8689 21.0305 17.5141 21.8235 16.9966L21.8274 16.9989C21.8663 18.5514 21.9107 20.0548 21.9107 20.7373C21.8881 22.8882 22.0492 23.1435 22.72 23.1435C23.4367 23.1435 23.8305 21.6859 24.5012 20.2984C25.288 18.5638 26.1207 16.8293 26.6288 16.8293C27.5774 16.8293 25.8654 23.2361 28.1548 23.2345C29.7735 23.2345 32.1788 16.7367 33.2201 16.7367C34.0294 16.7367 32.3866 23.2361 34.1912 23.2345C35.5095 23.2345 37.753 16.6207 38.5164 16.6207C39.3031 16.6207 37.6837 23.2345 40.0198 23.2345C42.1248 23.2345 43.8361 17.8004 44.4143 17.8004C44.6921 17.8004 45.2127 18.528 45.5839 19.5257L45.5815 19.5521C44.8516 20.4626 44.3917 21.335 44.3917 21.9871C44.3917 22.8197 45.0399 23.2353 45.6866 23.2353C46.6585 23.2353 47.6064 22.1956 47.6064 20.6922C47.6064 20.3778 47.5799 19.4798 47.2266 18.581L47.2282 18.5716C48.6818 17.2238 50.5619 16.0495 51.6996 15.8581C51.0522 16.5981 49.8724 17.2456 49.8724 19.3506C49.8724 21.6167 51.607 23.3512 53.8272 23.3512C56.9493 23.3512 57.6201 20.0214 57.6201 18.7265C57.6201 18.2549 57.5594 17.83 57.4512 17.451L57.4481 17.4557C58.5088 16.9561 59.3103 16.2519 59.6091 16.2519C60.2573 16.2519 60.0029 18.2175 60.0029 20.2541C60.0029 21.7801 59.771 23.3512 60.9048 23.3512C61.7608 23.3512 62.1764 21.6641 63.0324 20.1607C63.865 18.6798 64.7669 16.6674 65.114 16.6674C65.577 16.6674 65.3918 19.7669 65.3918 20.3685C65.3918 21.1311 65.2525 23.5357 66.8252 23.5357C67.889 23.5357 69.8781 20.5521 69.8781 20.1599C69.8781 19.9513 69.8781 19.9047 69.7162 19.9047C69.5543 19.9047 68.3279 21.917 67.8423 21.917C67.1482 21.917 67.5879 19.3498 67.5879 17.4534C67.5879 16.6207 67.703 14.771 66.3155 14.771C64.5576 14.771 62.8464 19.7202 62.3141 19.7202C61.8052 19.7194 63.0541 14.9562 60.8573 14.9562C59.964 14.9562 58.6356 16.1694 57.1858 16.7927L57.1944 16.7958C56.6606 15.7484 55.7026 15.2106 54.775 15.2106C54.1042 15.2106 53.5953 15.7196 53.5953 16.2511C53.5953 16.9678 54.1735 17.939 55.5151 17.939C55.8839 17.939 56.2427 17.879 56.5851 17.7825L56.6007 17.7888C56.722 18.1818 56.789 18.5763 56.7882 18.8876C56.7882 20.1132 55.9563 21.7085 54.3603 21.7085C53.1113 21.7085 52.0008 20.391 52.0008 18.7716C52.0008 16.1343 53.5969 15.6954 53.5969 15.1632C53.5969 14.932 53.4116 14.8861 53.0646 14.8861C51.281 14.8861 48.8289 16.3608 46.9877 18.0604L46.9807 18.0588C46.9173 17.9459 46.8482 17.8363 46.7737 17.7304C44.9925 15.1865 45.6866 14.6317 45.2243 14.6317C44.6462 14.6317 42.0556 21.6859 41.0377 21.6859C39.6961 21.6859 42.1482 14.8861 39.535 14.8861C37.4767 14.8861 36.297 20.2284 35.511 20.2284C34.7484 20.2284 36.2737 14.8861 34.0535 14.8861C32.4582 14.8861 30.0754 21.2696 29.035 21.2696C28.1564 21.2696 29.8443 14.9795 27.8093 14.9795C25.8662 14.9795 24.3402 19.9054 23.8546 19.9054C23.4484 19.9054 23.5355 18.367 23.5519 15.5437L23.5589 15.5242C25.1518 13.8122 26.26 11.4668 26.2607 9.24506C26.2607 8.20463 25.7518 7.39454 24.7806 7.39532C22.8842 7.39532 21.7737 10.4014 21.7737 13.7087C21.7737 14.4301 21.7901 15.3507 21.8118 16.2962L21.8064 16.3079C20.9263 16.9553 20.0975 17.2938 19.6228 17.2938L19.1948 17.2962L19.1956 17.297C18.7582 15.8713 17.5824 15.2355 16.7318 15.2355C16.061 15.2355 15.5295 15.8596 15.5295 16.3919C15.5295 17.1763 16.226 18.0059 18.4213 18.0541L18.426 18.0588C18.4815 18.3243 18.5107 18.5946 18.5131 18.8658C18.5131 20.0914 17.6112 21.7575 16.0159 21.7575C14.6276 21.7575 13.5872 20.1848 13.5872 18.4494C13.5872 16.2293 15.0673 15.5351 15.0673 15.3733C15.0673 15.2807 15.044 15.1881 14.998 15.1881C13.5296 15.1881 11.1343 16.8051 8.87683 19.1521L8.87294 19.1514C8.61769 17.209 8.31342 14.9141 8.31342 12.2286C8.31342 8.34314 9.03091 7.83499 9.03091 7.32606C9.03091 7.09494 8.96165 7.00156 8.56789 7.00156C7.68932 7.00156 2 9.56879 2 15.2581C2 19.6338 4.40771 21.5785 5.95863 22.759C4.29565 25.229 3.11047 27.9433 3.11047 30.3144C3.11047 31.6553 3.64275 32.9743 4.63649 32.9743C6.20921 32.9743 9.21534 29.6429 9.21612 22.8213C9.21612 21.9248 9.10017 20.9031 8.95154 19.7482L8.95231 19.7443C10.2994 18.3226 11.7437 17.1499 13.0074 16.3896ZM133.992 17.0814L133.995 17.0728C133.702 16.5063 133.285 16.0666 132.785 16.0666C132.554 16.0666 132.346 16.2978 132.346 16.483C132.346 16.8993 132.74 17.1538 133.34 17.1538C133.559 17.153 133.776 17.1273 133.992 17.0814ZM83.9632 22.2945C84.2535 21.8828 84.5578 21.4797 84.869 21.0859L84.8854 21.0494C84.5056 19.0323 84.101 17.0868 84.101 15.6495C84.101 11.5563 85.8822 8.64197 85.8822 8.01709C85.8822 7.60076 85.9523 7.5315 85.6511 7.5315C85.4426 7.5315 81.3727 9.26607 81.3727 15.3951C81.3734 17.8658 82.5236 20.8898 83.9632 22.2945ZM83.6426 22.759C83.0683 22.3225 82.5345 21.5723 81.7197 21.0159C81.0326 20.5451 79.221 21.0556 77.6498 21.3396L77.6467 21.3427C77.5097 22.2486 77.1985 23.1435 76.8864 23.1435C76.6825 23.1435 76.593 22.426 76.3378 21.5933L76.3222 21.5824C75.6203 21.7085 75.0258 21.8011 74.6655 21.8011C73.5783 21.8011 71.0804 21.3147 71.0804 19.6735C71.0804 18.749 72.1216 18.3786 73.1161 18.3786C74.2491 18.3786 76.053 19.1879 76.4926 20.0673C76.6078 18.4946 75.474 17.6386 75.474 17.3841C75.474 17.1296 76.7004 16.6674 76.8164 16.6674C77.3027 16.6674 77.7191 18.8876 77.7191 20.4611C77.7191 20.5358 77.716 20.6112 77.7128 20.6906V20.6922C78.9579 20.4432 80.2964 20.1801 81.1649 20.2984C80.3322 19.1187 79.7073 17.5001 79.7073 15.2566C79.7073 9.56724 85.3733 7 86.2519 7C86.6456 7 86.7382 7.0926 86.7382 7.3245C86.7382 7.83344 85.9982 8.34237 85.9982 12.2271C85.9982 14.9149 86.3025 17.2121 86.5577 19.1553C88.816 16.8067 91.2128 15.1873 92.6828 15.1873C92.7287 15.1873 92.7513 15.2799 92.7513 15.3725C92.7513 15.5344 91.2712 16.2285 91.2727 18.4487C91.2712 20.1832 92.335 21.756 93.7225 21.756C95.2952 21.756 96.1986 20.0899 96.1986 18.8642C96.1986 18.6214 96.1683 18.3405 96.1107 18.0533L96.1092 18.0518C93.9116 18.0035 93.2151 17.1748 93.2151 16.3888C93.2151 15.8565 93.7474 15.2324 94.4399 15.2324C95.2726 15.2324 96.443 15.8682 96.8811 17.2931L97.3083 17.2907C97.7838 17.2907 98.6141 16.9514 99.4958 16.3024L99.4974 16.297C99.4758 15.4334 99.4631 14.5695 99.4592 13.7056C99.4592 10.3983 100.571 7.3922 102.465 7.39143C103.437 7.39143 103.945 8.20152 103.945 9.24195C103.945 11.4637 102.837 13.8099 101.244 15.5219L101.237 15.5383C101.221 18.3638 101.133 19.9039 101.541 19.9039C102.026 19.9039 103.552 14.978 105.496 14.978C107.531 14.978 105.865 21.268 106.721 21.268C107.762 21.268 110.143 14.8846 111.739 14.8846C113.96 14.8846 112.434 20.2268 113.197 20.2268C113.983 20.2268 115.161 14.8846 117.22 14.8846C119.834 14.8846 117.382 21.6844 118.725 21.6844C119.742 21.6844 122.332 14.6301 122.911 14.6301C123.373 14.6301 122.68 15.185 124.459 17.7288C124.536 17.8362 124.604 17.9452 124.666 18.0572L124.676 18.0588C126.519 16.3592 128.977 14.8838 130.773 14.8838C131.097 14.8838 131.282 14.9305 131.282 15.1616C131.282 15.6931 129.686 16.1328 129.686 18.7693C129.686 20.3887 130.798 21.7062 132.045 21.7062C133.641 21.7062 134.474 20.1101 134.474 18.8852C134.474 18.574 134.408 18.181 134.287 17.788L134.276 17.7825C133.934 17.8823 133.58 17.9342 133.224 17.9366C131.861 17.9366 131.282 16.9647 131.282 16.2487C131.282 15.7165 131.791 15.2083 132.461 15.2083C133.387 15.2083 134.343 15.7437 134.878 16.7857L134.882 16.7865C136.327 16.1616 137.652 14.9538 138.544 14.9538C140.741 14.9538 139.492 19.7187 140.001 19.7187C140.556 19.7187 142.245 14.7694 144.002 14.7694C145.389 14.7694 145.274 16.6192 145.274 17.4518C145.274 19.349 144.835 21.9155 145.529 21.9155C146.014 21.9155 147.241 19.9031 147.402 19.9031C147.564 19.9031 147.587 19.9506 147.587 20.1583C147.587 20.5505 145.597 23.5341 144.511 23.5341C142.938 23.5341 143.077 21.1295 143.077 20.3669C143.077 19.7654 143.261 16.6658 142.8 16.6658C142.453 16.6658 141.551 18.6782 140.717 20.1591C139.863 21.6626 139.446 23.3497 138.591 23.3497C137.457 23.3497 137.688 21.7777 137.688 20.2525C137.688 18.2168 137.942 16.2503 137.296 16.2503C136.997 16.2503 136.194 16.9553 135.141 17.4541L135.139 17.4573C135.246 17.8339 135.306 18.2565 135.306 18.7249C135.306 20.0198 134.636 23.3497 131.513 23.3497C129.293 23.3497 127.558 21.6151 127.558 19.349C127.558 17.244 128.738 16.5966 129.409 15.8565C128.258 16.0487 126.374 17.2215 124.918 18.5693L124.914 18.5833C125.266 19.4813 125.292 20.377 125.292 20.6914C125.292 22.1949 124.343 23.2361 123.372 23.2345C122.725 23.2345 122.077 22.8197 122.077 21.9863C122.077 21.3326 122.539 20.4572 123.273 19.5444V19.5366C122.902 18.5327 122.38 17.8004 122.1 17.8004C121.522 17.8004 119.834 23.2345 117.706 23.2345C115.37 23.2345 116.989 16.6207 116.203 16.6207C115.44 16.6207 113.197 23.2345 111.902 23.2345C110.074 23.2345 111.716 16.7367 110.906 16.7367C109.867 16.7367 107.461 23.2345 105.842 23.2345C103.553 23.2345 105.263 16.8293 104.316 16.8293C103.807 16.8293 102.974 18.5638 102.188 20.2984C101.517 21.6859 101.125 23.1435 100.407 23.1435C99.7371 23.1435 99.597 22.8882 99.597 20.7373C99.597 20.0548 99.5526 18.5522 99.5137 17.0005L99.5106 16.9966C98.7169 17.5133 97.8749 17.8674 97.029 17.9981L97.0259 18.0028C97.0438 18.1662 97.0547 18.3382 97.0547 18.5171C97.0547 20.0665 96.4298 23.3271 93.2384 23.3271C90.8323 23.3271 89.5148 21.4999 89.5148 19.1646C89.5148 17.9164 90.1163 17.083 90.6945 16.3896C89.4315 17.1491 87.9888 18.3195 86.6425 19.7373L86.6379 19.7568C86.7849 20.9077 86.9024 21.9256 86.9024 22.8197C86.9024 29.6413 83.9189 32.9727 82.3228 32.9727C81.3275 32.9727 80.7952 31.6537 80.7952 30.3129C80.7945 27.9425 81.9796 25.2274 83.6426 22.759ZM123.48 20.1832H123.474C123.08 20.7513 122.841 21.2961 122.841 21.756C122.841 22.2182 122.933 22.496 123.212 22.496C123.466 22.496 123.697 22.1707 123.697 21.7318C123.697 21.2089 123.613 20.6789 123.48 20.1832ZM101.238 14.5974C102.217 13.3329 102.974 11.6465 102.974 9.59058C102.974 8.61862 102.903 8.06378 102.396 8.06378C101.093 8.06378 101.223 12.8924 101.238 14.5974ZM95.8671 17.2752L95.8703 17.2689C95.6228 16.6884 95.2337 16.2277 94.6952 16.2277C94.4625 16.2277 94.324 16.367 94.324 16.5514C94.3248 17.0658 95.0571 17.2277 95.8671 17.2752ZM85.0013 21.6727L84.9951 21.6711C83.2092 24.0181 81.8808 26.7472 81.8808 29.3402C81.8808 30.1977 81.8808 31.4693 83.0605 31.4693C84.5181 31.4693 85.5367 29.2942 85.5367 26.2648C85.5367 24.857 85.2885 23.2563 85.0013 21.6727ZM76.1113 20.9871L76.1207 20.9731C75.7176 19.9918 75.011 19.0494 73.5791 19.0494C73.1861 19.0494 72.9776 19.3965 72.9776 19.8128C72.9776 20.5762 74.1799 21.061 75.2911 21.061C75.5215 21.0618 75.8016 21.033 76.1113 20.9871ZM56.3057 17.0814C56.092 17.128 55.8739 17.152 55.6552 17.153C55.0311 17.153 54.6606 16.8985 54.6606 16.4822C54.6606 16.297 54.8692 16.0659 55.1003 16.0659C55.5999 16.0659 56.0155 16.5063 56.3096 17.0721L56.3057 17.0814ZM45.7963 20.191C45.9271 20.6836 46.0111 21.212 46.0111 21.7318C46.0111 22.1707 45.78 22.496 45.5247 22.496C45.2477 22.496 45.1551 22.2182 45.1551 21.756C45.1551 21.2984 45.3932 20.756 45.7839 20.1902H45.7963V20.191ZM23.5526 14.5896C23.5379 12.8776 23.4095 8.06378 24.7106 8.06378C25.2195 8.06378 25.2888 8.61862 25.2888 9.59058C25.2888 11.6434 24.5339 13.3282 23.5565 14.592L23.5526 14.5896ZM18.1847 17.2752C17.3731 17.2269 16.6385 17.0666 16.6385 16.5514C16.6385 16.367 16.7778 16.2277 17.0089 16.2277C17.5489 16.2277 17.9388 16.69 18.1863 17.2728L18.1847 17.2752ZM7.1975 21.0704C6.88156 21.4673 6.57418 21.8758 6.28002 22.2921H6.27769C4.84038 20.886 3.68711 17.8635 3.68633 15.3943C3.68633 9.26607 7.75702 7.5315 7.96557 7.5315C8.26595 7.5315 8.17413 7.60076 8.17413 8.01709C8.17413 8.64197 6.41621 11.5555 6.41621 15.6495C6.41621 17.0868 6.82086 19.0331 7.19984 21.0509L7.1975 21.0704ZM7.31501 21.6665C7.60372 23.2516 7.8504 24.8539 7.8504 26.2655C7.8504 29.295 6.83254 31.4701 5.37577 31.4701C4.19604 31.4701 4.19604 30.1977 4.19604 29.3425C4.19604 26.7465 5.52596 24.015 7.31268 21.6672H7.31501V21.6665Z" fill="black"/>
</svg>
