<svg width="150" height="40" viewBox="0 0 150 40" fill="none" xmlns="http://www.w3.org/2000/svg">
<path fill-rule="evenodd" clip-rule="evenodd" d="M88.344 32.4292C81.8485 37.2328 72.4336 39.7956 64.3276 39.7956C52.9617 39.7956 42.7294 35.5779 34.9883 28.5629C34.3801 28.0113 34.9251 27.2595 35.6549 27.6891C44.0091 32.5659 54.3386 35.4998 65.0088 35.4998C72.205 35.4998 80.1212 34.006 87.4001 30.9061C88.4997 30.4375 89.4193 31.6286 88.344 32.4292Z" fill="black"/>
<path fill-rule="evenodd" clip-rule="evenodd" d="M91.0443 29.3295C90.2172 28.2653 85.556 28.8267 83.4638 29.0757C82.8264 29.1538 82.7291 28.5973 83.3032 28.197C87.0157 25.5755 93.1073 26.3322 93.8177 27.2109C94.5281 28.0945 93.6328 34.221 90.1442 37.1451C89.609 37.5942 89.0981 37.355 89.3365 36.7594C90.1199 34.797 91.8763 30.3986 91.0443 29.3295Z" fill="black"/>
<path fill-rule="evenodd" clip-rule="evenodd" d="M83.6098 9.6906V7.14237C83.6098 6.75671 83.9017 6.49799 84.252 6.49799H95.6228C95.9877 6.49799 96.2797 6.7616 96.2797 7.14237V9.32447C96.2748 9.6906 95.9683 10.169 95.4233 10.9257L89.5311 19.3661C91.7206 19.3124 94.0318 19.6394 96.0169 20.7622C96.4646 21.0161 96.5862 21.3871 96.6203 21.7532V24.4723C96.6203 24.8433 96.2116 25.2778 95.7834 25.0532C92.2851 23.2128 87.6384 23.0127 83.7703 25.0727C83.3762 25.2875 82.9626 24.8579 82.9626 24.4869V21.9045C82.9626 21.4896 82.9675 20.7817 83.3811 20.152L90.2075 10.3301H84.2666C83.9017 10.3301 83.6098 10.0714 83.6098 9.6906Z" fill="black"/>
<path fill-rule="evenodd" clip-rule="evenodd" d="M42.131 25.5902H38.6716C38.3407 25.5658 38.078 25.3169 38.0536 24.9996V7.18635C38.0536 6.82999 38.3505 6.54685 38.7202 6.54685H41.9461C42.2818 6.56148 42.5494 6.82022 42.5738 7.14241V9.47097H42.637C43.4787 7.22052 45.0601 6.17096 47.1912 6.17096C49.3563 6.17096 50.709 7.22052 51.6821 9.47097C52.519 7.22052 54.4214 6.17096 56.4601 6.17096C57.91 6.17096 59.4962 6.7714 60.4644 8.11875C61.5592 9.61742 61.3353 11.7946 61.3353 13.7034L61.3305 24.9459C61.3305 25.3022 61.0337 25.5902 60.6639 25.5902H57.2094C56.8639 25.5658 56.5866 25.2876 56.5866 24.9459V15.5047C56.5866 14.7529 56.6547 12.8784 56.4893 12.1656C56.2314 10.9696 55.4578 10.6328 54.4554 10.6328C53.6186 10.6328 52.7428 11.1942 52.3876 12.0924C52.0324 12.9907 52.0665 14.4942 52.0665 15.5047V24.9459C52.0665 25.3022 51.7697 25.5902 51.3999 25.5902H47.9453C47.595 25.5658 47.3225 25.2876 47.3225 24.9459L47.3177 15.5047C47.3177 13.5179 47.6437 10.5938 45.1866 10.5938C42.7003 10.5938 42.7976 13.4446 42.7976 15.5047V24.9459C42.7976 25.3022 42.5008 25.5902 42.131 25.5902" fill="black"/>
<path fill-rule="evenodd" clip-rule="evenodd" d="M106.069 6.17096C111.202 6.17096 113.98 10.5938 113.98 16.2174C113.98 21.6507 110.91 25.9612 106.069 25.9612C101.028 25.9612 98.2841 21.5384 98.2841 16.027C98.2841 10.4815 101.062 6.17096 106.069 6.17096ZM106.098 9.8078C103.549 9.8078 103.388 13.2933 103.388 15.4657C103.388 17.6429 103.354 22.2902 106.069 22.2902C108.75 22.2902 108.876 18.5411 108.876 16.2565C108.876 14.7529 108.813 12.9565 108.361 11.531C107.971 10.2911 107.198 9.8078 106.098 9.8078Z" fill="black"/>
<path fill-rule="evenodd" clip-rule="evenodd" d="M120.637 25.5902H117.192C116.847 25.5658 116.569 25.2876 116.569 24.9459L116.564 7.12777C116.594 6.80069 116.881 6.54685 117.231 6.54685H120.437C120.739 6.56148 120.987 6.76652 121.055 7.04478V9.76875H121.118C122.087 7.3328 123.444 6.17096 125.833 6.17096C127.385 6.17096 128.899 6.73235 129.872 8.27008C130.777 9.69552 130.777 12.0924 130.777 13.8157V25.0288C130.738 25.3413 130.451 25.5902 130.11 25.5902H126.641C126.325 25.5658 126.062 25.3315 126.028 25.0288V15.3534C126.028 13.4056 126.252 10.5547 123.863 10.5547C123.021 10.5547 122.247 11.121 121.863 11.9801C121.376 13.0688 121.313 14.1525 121.313 15.3534V24.9459C121.308 25.3022 121.007 25.5902 120.637 25.5902" fill="black"/>
<path fill-rule="evenodd" clip-rule="evenodd" d="M74.5452 17.0814C74.5452 18.4336 74.5793 19.5613 73.8981 20.7622C73.3483 21.7385 72.4725 22.3389 71.5042 22.3389C70.1759 22.3389 69.3975 21.3236 69.3975 19.8249C69.3975 16.8666 72.0394 16.3296 74.5452 16.3296V17.0814ZM78.0338 25.5413C77.8051 25.7463 77.4743 25.761 77.2164 25.6243C76.0681 24.6675 75.8589 24.2233 75.2313 23.3104C73.3337 25.2533 71.9859 25.8342 69.5288 25.8342C66.6143 25.8342 64.3519 24.0329 64.3519 20.4253C64.3519 17.6086 65.8699 15.6901 68.04 14.7528C69.9181 13.9229 72.5406 13.7765 74.5452 13.5471V13.0979C74.5452 12.2729 74.6085 11.2966 74.1219 10.5839C73.7035 9.94439 72.8958 9.68078 72.1805 9.68078C70.862 9.68078 69.6894 10.3593 69.4023 11.7653C69.3439 12.0777 69.1153 12.3852 68.799 12.3999L65.4466 12.0386C65.1644 11.9752 64.8482 11.7457 64.9309 11.3113C65.6996 7.23018 69.378 6 72.6671 6C74.3506 6 76.5498 6.44911 77.8781 7.72811C79.5616 9.30489 79.401 11.4089 79.401 13.6984V19.1073C79.401 20.7329 80.0725 21.4456 80.705 22.3243C80.924 22.6367 80.9726 23.0126 80.6904 23.2469C79.9849 23.8376 78.7296 24.936 78.0387 25.5511L78.0338 25.5413" fill="black"/>
<path fill-rule="evenodd" clip-rule="evenodd" d="M29.1933 17.0814C29.1933 18.4336 29.2274 19.5613 28.5462 20.7622C27.9964 21.7385 27.1255 22.3389 26.1524 22.3389C24.8241 22.3389 24.0504 21.3236 24.0504 19.8249C24.0504 16.8666 26.6924 16.3296 29.1933 16.3296V17.0814ZM32.6819 25.5413C32.4533 25.7463 32.1224 25.761 31.8645 25.6243C30.7163 24.6675 30.5119 24.2233 29.8794 23.3104C27.9818 25.2533 26.6389 25.8342 24.177 25.8342C21.2673 25.8342 19 24.0329 19 20.4253C19 17.6086 20.5229 15.6901 22.6881 14.7528C24.5662 13.9229 27.1887 13.7765 29.1933 13.5471V13.0979C29.1933 12.2729 29.2566 11.2966 28.7749 10.5839C28.3516 9.94439 27.5439 9.68078 26.8335 9.68078C25.515 9.68078 24.3375 10.3593 24.0504 11.7653C23.9921 12.0777 23.7634 12.3852 23.452 12.3999L20.0948 12.0386C19.8125 11.9752 19.5012 11.7457 19.579 11.3113C20.3526 7.23018 24.0261 6 27.3152 6C28.9987 6 31.1979 6.44911 32.5262 7.72811C34.2097 9.30489 34.0492 11.4089 34.0492 13.6984V19.1073C34.0492 20.7329 34.7206 21.4456 35.3531 22.3243C35.577 22.6367 35.6256 23.0126 35.3434 23.2469C34.6379 23.8376 33.3826 24.936 32.6917 25.5511L32.6819 25.5413" fill="black"/>
</svg>
