<svg width="150" height="40" viewBox="0 0 150 40" fill="none" xmlns="http://www.w3.org/2000/svg">
<path d="M37.6415 25.6978H27.7036V29.0726H37.6415V25.6978Z" fill="black"/>
<path d="M145 10.3773V29.0773H139.825C139.825 29.0773 133.552 17.9326 132.846 16.6933V29.0773H128.695V10.3773H134.076C134.076 10.3773 140.167 21.2169 140.854 22.4467V10.3773H145ZM18.1259 10.3773C18.1259 10.3773 14.821 20.7259 14.4798 21.8127C14.1292 20.7212 10.8477 10.3773 10.8477 10.3773H5V29.0773H9.05743V16.3072C9.71653 18.5142 12.8531 29.0773 12.8531 29.0773H15.9289C15.9289 29.0773 19.229 18.3902 19.8835 16.2595V29.0773H23.9596V10.3773H18.1259ZM72.0598 25.4545H62.9259V21.112H71.3025V17.4893H62.9259V14.0096H72.0598V10.3773H58.5085V29.0773H72.0598V25.4545ZM50.8798 10.3773C50.8798 10.3773 45.9763 16.6361 45.2705 17.4607V10.3773H41.1008V29.0773H45.2705V20.8213C46.0043 21.7412 51.0013 29.0773 51.0013 29.0773H56.8164C56.8164 29.0773 49.1269 19.3817 48.8464 19.0385C49.1316 18.7144 56.391 10.3726 56.391 10.3726H50.8798V10.3773ZM108.488 19.6725C108.488 13.919 111.531 10.0055 117.159 10.0055C122.712 10.0055 125.825 13.9953 125.825 19.6725C125.825 25.3592 122.768 29.4491 117.159 29.4491C111.479 29.4538 108.488 25.445 108.488 19.6725ZM112.915 19.6868C112.915 22.5945 114.064 25.5213 117.159 25.5213C120.267 25.5213 121.413 22.5945 121.413 19.6868C121.413 16.8553 120.179 13.9476 117.159 13.9476C114.149 13.9524 112.915 16.8553 112.915 19.6868ZM83.7038 17.7086C81.7032 17.1652 79.81 16.8363 79.7726 15.5159C79.7633 15.1393 79.8895 14.8295 80.1653 14.5578C80.8711 13.8761 82.4791 13.6807 83.7506 13.776C85.6765 13.9381 86.8077 14.2765 88.3362 15.1441L89.2384 11.3402C86.9012 10.5203 85.1108 9.97692 82.5679 10.0008C77.9683 10.0484 75.1262 12.3555 75.1262 16.0211C75.1262 19.763 78.6133 20.7212 81.5489 21.5839C83.4561 22.1273 85.3586 22.4181 85.3586 23.8672C85.3586 25.3115 83.0588 25.8216 81.5115 25.8216C79.7072 25.8216 78.0711 25.3211 76.1219 24.1627L74.9346 27.9285C77.5756 28.9867 79.179 29.4395 81.7312 29.4395C84.5219 29.4395 86.8264 28.6482 88.2194 27.223C89.2337 26.2029 89.7619 24.8444 89.7619 23.3C89.7619 19.5056 86.4898 18.4474 83.7038 17.7086ZM100.345 17.7086C98.3442 17.1652 96.4371 16.8363 96.409 15.5159C96.4043 15.1393 96.5352 14.8295 96.8017 14.5578C97.5169 13.8761 99.1202 13.6807 100.382 13.776C102.308 13.9381 103.439 14.2765 104.982 15.1441L105.875 11.3402C103.538 10.5203 101.752 9.97692 99.2043 10.0008C94.6093 10.0484 91.7673 12.3555 91.7673 16.0211C91.7673 19.763 95.2591 20.7212 98.19 21.5839C100.097 22.1273 102.004 22.4181 102.004 23.8672C102.004 25.3115 99.7045 25.8216 98.1526 25.8216C96.3436 25.8216 94.7122 25.3211 92.7629 24.1627L91.5709 27.9285C94.2073 28.9867 95.82 29.4395 98.377 29.4395C101.163 29.4395 103.467 28.6482 104.874 27.223C105.875 26.2029 106.412 24.8444 106.412 23.3C106.394 19.5056 103.117 18.4474 100.345 17.7086ZM33.8881 23.7385C35.4354 23.7385 36.9172 23.4716 38.1326 22.8805L36.8705 19.8584C36.2441 20.2492 35.4915 20.4781 34.6828 20.4781C32.5326 20.4781 30.7516 19.3865 30.7516 16.8887C30.7516 14.3862 32.5279 13.2993 34.6828 13.2993C35.4915 13.2993 36.2441 13.5234 36.8705 13.9047L38.1326 10.8874C36.9172 10.3058 35.4354 10.0294 33.8881 10.0294C29.5035 10.0294 26.7129 12.5939 26.7129 16.8887C26.7129 21.174 29.5035 23.7385 33.8881 23.7385Z" fill="black"/>
</svg>
