<svg width="150" height="40" viewBox="0 0 150 40" fill="none" xmlns="http://www.w3.org/2000/svg">
<path d="M75 0C71.0444 0 67.1776 1.17298 63.8886 3.37061C60.5996 5.56824 58.0362 8.69181 56.5224 12.3463C55.0087 16.0009 54.6126 20.0222 55.3843 23.9018C56.156 27.7814 58.0608 31.3451 60.8579 34.1421C63.6549 36.9392 67.2186 38.844 71.0982 39.6157C74.9778 40.3874 78.9992 39.9913 82.6537 38.4776C86.3082 36.9638 89.4318 34.4004 91.6294 31.1114C93.827 27.8224 95 23.9556 95 20C94.9693 14.7051 92.8523 9.63589 89.1082 5.89179C85.3641 2.1477 80.2949 0.0307062 75 0ZM75 37.962C71.4475 37.962 67.9747 36.9085 65.0209 34.9349C62.067 32.9612 59.7648 30.1559 58.4053 26.8738C57.0458 23.5916 56.6901 19.9801 57.3831 16.4958C58.0762 13.0115 59.7869 9.81098 62.299 7.29895C64.811 4.78692 68.0115 3.0762 71.4958 2.38313C74.9801 1.69007 78.5916 2.04577 81.8738 3.40528C85.1559 4.76478 87.9612 7.06701 89.9349 10.0208C91.9086 12.9747 92.962 16.4475 92.962 20C92.9648 22.3596 92.5021 24.6965 91.6004 26.877C90.6987 29.0575 89.3757 31.0387 87.7072 32.7072C86.0387 34.3757 84.0575 35.6987 81.877 36.6004C79.6965 37.502 77.3596 37.9648 75 37.962ZM90.541 22.675V24.458H84.936V15.668H86.974V22.674L90.541 22.675ZM64.427 24.331C65.4004 24.343 66.3484 24.0207 67.1128 23.4179C67.8772 22.8151 68.4117 21.9684 68.627 21.019L73.6 24.841L78.568 21.019V24.331H84.173V22.548H80.478V15.541H78.439V18.853L73.726 22.675L72.707 21.783L75 20L77.42 18.089L76.02 16.943L71.307 20.637L70.288 19.745L75 16.178L73.6 15.032L68.632 18.854C68.3992 17.9139 67.8601 17.078 67.0996 16.4783C66.339 15.8786 65.4005 15.5492 64.432 15.542H60.86V24.332H64.427V24.331ZM62.771 22.675V17.325H64.3C64.9742 17.3628 65.6063 17.6648 66.0594 18.1655C66.5124 18.6663 66.7498 19.3254 66.72 20C66.7508 20.6749 66.5138 21.3346 66.0606 21.8356C65.6073 22.3366 64.9746 22.6383 64.3 22.675H62.771Z" fill="#0D0D0D"/>
</svg>
